<mxfile host="app.diagrams.net" modified="2024-05-08T15:29:30.046Z" agent="Mozilla/5.0 (Windows NT 10.0; Win64; x64) AppleWebKit/537.36 (KHTML, like Gecko) Chrome/124.0.0.0 Safari/537.36" etag="GXfdLhDQ_R_Bm2nIg4Sa" version="24.0.5" type="device">
  <diagram name="Страница — 1" id="jWZw2HYu2_GGpK6bklTr">
    <mxGraphModel dx="1687" dy="918" grid="1" gridSize="10" guides="1" tooltips="1" connect="1" arrows="1" fold="1" page="1" pageScale="1" pageWidth="827" pageHeight="1169" math="0" shadow="0">
      <root>
        <mxCell id="0" />
        <mxCell id="1" parent="0" />
        <mxCell id="1WJaWtMEOL5mZnK0n6jw-3" style="edgeStyle=orthogonalEdgeStyle;rounded=0;orthogonalLoop=1;jettySize=auto;html=1;exitX=0.5;exitY=1;exitDx=0;exitDy=0;entryX=0.5;entryY=0;entryDx=0;entryDy=0;" edge="1" parent="1" source="1WJaWtMEOL5mZnK0n6jw-1" target="1WJaWtMEOL5mZnK0n6jw-2">
          <mxGeometry relative="1" as="geometry" />
        </mxCell>
        <mxCell id="1WJaWtMEOL5mZnK0n6jw-1" value="Start" style="ellipse;whiteSpace=wrap;html=1;" vertex="1" parent="1">
          <mxGeometry x="40" y="40" width="100" height="40" as="geometry" />
        </mxCell>
        <mxCell id="1WJaWtMEOL5mZnK0n6jw-5" style="edgeStyle=orthogonalEdgeStyle;rounded=0;orthogonalLoop=1;jettySize=auto;html=1;exitX=0.5;exitY=1;exitDx=0;exitDy=0;entryX=0.5;entryY=0;entryDx=0;entryDy=0;" edge="1" parent="1" source="1WJaWtMEOL5mZnK0n6jw-2" target="1WJaWtMEOL5mZnK0n6jw-4">
          <mxGeometry relative="1" as="geometry" />
        </mxCell>
        <mxCell id="1WJaWtMEOL5mZnK0n6jw-2" value="Array[]" style="shape=parallelogram;perimeter=parallelogramPerimeter;whiteSpace=wrap;html=1;fixedSize=1;" vertex="1" parent="1">
          <mxGeometry x="40" y="120" width="100" height="40" as="geometry" />
        </mxCell>
        <mxCell id="1WJaWtMEOL5mZnK0n6jw-7" style="edgeStyle=orthogonalEdgeStyle;rounded=0;orthogonalLoop=1;jettySize=auto;html=1;exitX=0.5;exitY=1;exitDx=0;exitDy=0;entryX=0.5;entryY=0;entryDx=0;entryDy=0;" edge="1" parent="1" source="1WJaWtMEOL5mZnK0n6jw-4" target="1WJaWtMEOL5mZnK0n6jw-6">
          <mxGeometry relative="1" as="geometry" />
        </mxCell>
        <mxCell id="1WJaWtMEOL5mZnK0n6jw-4" value="i = 0&lt;div&gt;n = 0&lt;/div&gt;&lt;div&gt;k = o&lt;/div&gt;" style="rounded=0;whiteSpace=wrap;html=1;" vertex="1" parent="1">
          <mxGeometry x="40" y="200" width="100" height="50" as="geometry" />
        </mxCell>
        <mxCell id="1WJaWtMEOL5mZnK0n6jw-9" style="edgeStyle=orthogonalEdgeStyle;rounded=0;orthogonalLoop=1;jettySize=auto;html=1;exitX=0.5;exitY=1;exitDx=0;exitDy=0;entryX=0.5;entryY=0;entryDx=0;entryDy=0;" edge="1" parent="1" source="1WJaWtMEOL5mZnK0n6jw-6" target="1WJaWtMEOL5mZnK0n6jw-8">
          <mxGeometry relative="1" as="geometry" />
        </mxCell>
        <mxCell id="1WJaWtMEOL5mZnK0n6jw-10" value="No" style="edgeLabel;html=1;align=center;verticalAlign=middle;resizable=0;points=[];" vertex="1" connectable="0" parent="1WJaWtMEOL5mZnK0n6jw-9">
          <mxGeometry x="-0.0667" y="-2" relative="1" as="geometry">
            <mxPoint as="offset" />
          </mxGeometry>
        </mxCell>
        <mxCell id="1WJaWtMEOL5mZnK0n6jw-26" style="edgeStyle=orthogonalEdgeStyle;rounded=0;orthogonalLoop=1;jettySize=auto;html=1;exitX=1;exitY=0.5;exitDx=0;exitDy=0;entryX=0;entryY=0.5;entryDx=0;entryDy=0;" edge="1" parent="1" source="1WJaWtMEOL5mZnK0n6jw-6" target="1WJaWtMEOL5mZnK0n6jw-22">
          <mxGeometry relative="1" as="geometry" />
        </mxCell>
        <mxCell id="1WJaWtMEOL5mZnK0n6jw-27" value="Yes" style="edgeLabel;html=1;align=center;verticalAlign=middle;resizable=0;points=[];" vertex="1" connectable="0" parent="1WJaWtMEOL5mZnK0n6jw-26">
          <mxGeometry x="-0.0154" relative="1" as="geometry">
            <mxPoint as="offset" />
          </mxGeometry>
        </mxCell>
        <mxCell id="1WJaWtMEOL5mZnK0n6jw-6" value="i &amp;lt; array.Lenght" style="rhombus;whiteSpace=wrap;html=1;" vertex="1" parent="1">
          <mxGeometry x="25" y="330" width="130" height="80" as="geometry" />
        </mxCell>
        <mxCell id="1WJaWtMEOL5mZnK0n6jw-12" style="edgeStyle=orthogonalEdgeStyle;rounded=0;orthogonalLoop=1;jettySize=auto;html=1;exitX=0.5;exitY=1;exitDx=0;exitDy=0;" edge="1" parent="1" source="1WJaWtMEOL5mZnK0n6jw-8" target="1WJaWtMEOL5mZnK0n6jw-11">
          <mxGeometry relative="1" as="geometry" />
        </mxCell>
        <mxCell id="1WJaWtMEOL5mZnK0n6jw-13" value="No" style="edgeLabel;html=1;align=center;verticalAlign=middle;resizable=0;points=[];" vertex="1" connectable="0" parent="1WJaWtMEOL5mZnK0n6jw-12">
          <mxGeometry relative="1" as="geometry">
            <mxPoint as="offset" />
          </mxGeometry>
        </mxCell>
        <mxCell id="1WJaWtMEOL5mZnK0n6jw-8" value="new array[n]" style="rounded=0;whiteSpace=wrap;html=1;" vertex="1" parent="1">
          <mxGeometry x="40" y="450" width="100" height="50" as="geometry" />
        </mxCell>
        <mxCell id="1WJaWtMEOL5mZnK0n6jw-17" style="edgeStyle=orthogonalEdgeStyle;rounded=0;orthogonalLoop=1;jettySize=auto;html=1;exitX=0.5;exitY=1;exitDx=0;exitDy=0;" edge="1" parent="1" source="1WJaWtMEOL5mZnK0n6jw-11" target="1WJaWtMEOL5mZnK0n6jw-14">
          <mxGeometry relative="1" as="geometry" />
        </mxCell>
        <mxCell id="1WJaWtMEOL5mZnK0n6jw-18" value="No" style="edgeLabel;html=1;align=center;verticalAlign=middle;resizable=0;points=[];" vertex="1" connectable="0" parent="1WJaWtMEOL5mZnK0n6jw-17">
          <mxGeometry x="0.05" y="-3" relative="1" as="geometry">
            <mxPoint as="offset" />
          </mxGeometry>
        </mxCell>
        <mxCell id="1WJaWtMEOL5mZnK0n6jw-42" style="edgeStyle=orthogonalEdgeStyle;rounded=0;orthogonalLoop=1;jettySize=auto;html=1;exitX=1;exitY=0.5;exitDx=0;exitDy=0;" edge="1" parent="1" source="1WJaWtMEOL5mZnK0n6jw-11">
          <mxGeometry relative="1" as="geometry">
            <mxPoint x="240" y="640" as="targetPoint" />
          </mxGeometry>
        </mxCell>
        <mxCell id="1WJaWtMEOL5mZnK0n6jw-11" value="i &amp;lt; array.Lenght" style="rhombus;whiteSpace=wrap;html=1;" vertex="1" parent="1">
          <mxGeometry x="30" y="600" width="120" height="80" as="geometry" />
        </mxCell>
        <mxCell id="1WJaWtMEOL5mZnK0n6jw-21" style="edgeStyle=orthogonalEdgeStyle;rounded=0;orthogonalLoop=1;jettySize=auto;html=1;entryX=0.5;entryY=0;entryDx=0;entryDy=0;" edge="1" parent="1" source="1WJaWtMEOL5mZnK0n6jw-14" target="1WJaWtMEOL5mZnK0n6jw-20">
          <mxGeometry relative="1" as="geometry" />
        </mxCell>
        <mxCell id="1WJaWtMEOL5mZnK0n6jw-14" value="new array[]" style="shape=document;whiteSpace=wrap;html=1;boundedLbl=1;" vertex="1" parent="1">
          <mxGeometry x="35" y="720" width="110" height="60" as="geometry" />
        </mxCell>
        <mxCell id="1WJaWtMEOL5mZnK0n6jw-20" value="End" style="ellipse;whiteSpace=wrap;html=1;" vertex="1" parent="1">
          <mxGeometry x="40" y="820" width="100" height="40" as="geometry" />
        </mxCell>
        <mxCell id="1WJaWtMEOL5mZnK0n6jw-24" style="edgeStyle=orthogonalEdgeStyle;rounded=0;orthogonalLoop=1;jettySize=auto;html=1;exitX=0.5;exitY=0;exitDx=0;exitDy=0;entryX=0.5;entryY=1;entryDx=0;entryDy=0;" edge="1" parent="1" source="1WJaWtMEOL5mZnK0n6jw-22" target="1WJaWtMEOL5mZnK0n6jw-23">
          <mxGeometry relative="1" as="geometry" />
        </mxCell>
        <mxCell id="1WJaWtMEOL5mZnK0n6jw-25" value="No" style="edgeLabel;html=1;align=center;verticalAlign=middle;resizable=0;points=[];" vertex="1" connectable="0" parent="1WJaWtMEOL5mZnK0n6jw-24">
          <mxGeometry x="0.1" y="1" relative="1" as="geometry">
            <mxPoint as="offset" />
          </mxGeometry>
        </mxCell>
        <mxCell id="1WJaWtMEOL5mZnK0n6jw-30" style="edgeStyle=orthogonalEdgeStyle;rounded=0;orthogonalLoop=1;jettySize=auto;html=1;exitX=1;exitY=0.5;exitDx=0;exitDy=0;" edge="1" parent="1" source="1WJaWtMEOL5mZnK0n6jw-22" target="1WJaWtMEOL5mZnK0n6jw-29">
          <mxGeometry relative="1" as="geometry" />
        </mxCell>
        <mxCell id="1WJaWtMEOL5mZnK0n6jw-31" value="Yes" style="edgeLabel;html=1;align=center;verticalAlign=middle;resizable=0;points=[];" vertex="1" connectable="0" parent="1WJaWtMEOL5mZnK0n6jw-30">
          <mxGeometry x="0.0625" y="-1" relative="1" as="geometry">
            <mxPoint as="offset" />
          </mxGeometry>
        </mxCell>
        <mxCell id="1WJaWtMEOL5mZnK0n6jw-22" value="array[i].Lenght &amp;lt;= 3" style="rhombus;whiteSpace=wrap;html=1;" vertex="1" parent="1">
          <mxGeometry x="220" y="330" width="130" height="80" as="geometry" />
        </mxCell>
        <mxCell id="1WJaWtMEOL5mZnK0n6jw-28" style="edgeStyle=orthogonalEdgeStyle;rounded=0;orthogonalLoop=1;jettySize=auto;html=1;exitX=0;exitY=0.5;exitDx=0;exitDy=0;" edge="1" parent="1" source="1WJaWtMEOL5mZnK0n6jw-23">
          <mxGeometry relative="1" as="geometry">
            <mxPoint x="90" y="275" as="targetPoint" />
          </mxGeometry>
        </mxCell>
        <mxCell id="1WJaWtMEOL5mZnK0n6jw-23" value="i ++" style="rounded=0;whiteSpace=wrap;html=1;" vertex="1" parent="1">
          <mxGeometry x="250" y="260" width="70" height="30" as="geometry" />
        </mxCell>
        <mxCell id="1WJaWtMEOL5mZnK0n6jw-32" style="edgeStyle=orthogonalEdgeStyle;rounded=0;orthogonalLoop=1;jettySize=auto;html=1;entryX=1;entryY=0.5;entryDx=0;entryDy=0;" edge="1" parent="1" source="1WJaWtMEOL5mZnK0n6jw-29" target="1WJaWtMEOL5mZnK0n6jw-23">
          <mxGeometry relative="1" as="geometry">
            <Array as="points">
              <mxPoint x="449" y="275" />
            </Array>
          </mxGeometry>
        </mxCell>
        <mxCell id="1WJaWtMEOL5mZnK0n6jw-29" value="n ++" style="rounded=0;whiteSpace=wrap;html=1;" vertex="1" parent="1">
          <mxGeometry x="413.5" y="352.5" width="70" height="35" as="geometry" />
        </mxCell>
        <mxCell id="1WJaWtMEOL5mZnK0n6jw-33" value="Yes" style="edgeLabel;html=1;align=center;verticalAlign=middle;resizable=0;points=[];" vertex="1" connectable="0" parent="1">
          <mxGeometry x="210" y="640" as="geometry" />
        </mxCell>
        <mxCell id="1WJaWtMEOL5mZnK0n6jw-34" style="edgeStyle=orthogonalEdgeStyle;rounded=0;orthogonalLoop=1;jettySize=auto;html=1;exitX=0.5;exitY=0;exitDx=0;exitDy=0;entryX=0.5;entryY=1;entryDx=0;entryDy=0;" edge="1" parent="1" source="1WJaWtMEOL5mZnK0n6jw-38" target="1WJaWtMEOL5mZnK0n6jw-39">
          <mxGeometry relative="1" as="geometry" />
        </mxCell>
        <mxCell id="1WJaWtMEOL5mZnK0n6jw-35" value="No" style="edgeLabel;html=1;align=center;verticalAlign=middle;resizable=0;points=[];" vertex="1" connectable="0" parent="1WJaWtMEOL5mZnK0n6jw-34">
          <mxGeometry x="0.1" y="1" relative="1" as="geometry">
            <mxPoint as="offset" />
          </mxGeometry>
        </mxCell>
        <mxCell id="1WJaWtMEOL5mZnK0n6jw-36" style="edgeStyle=orthogonalEdgeStyle;rounded=0;orthogonalLoop=1;jettySize=auto;html=1;exitX=1;exitY=0.5;exitDx=0;exitDy=0;" edge="1" parent="1" source="1WJaWtMEOL5mZnK0n6jw-38" target="1WJaWtMEOL5mZnK0n6jw-41">
          <mxGeometry relative="1" as="geometry">
            <Array as="points">
              <mxPoint x="420" y="640" />
              <mxPoint x="420" y="640" />
            </Array>
          </mxGeometry>
        </mxCell>
        <mxCell id="1WJaWtMEOL5mZnK0n6jw-37" value="Yes" style="edgeLabel;html=1;align=center;verticalAlign=middle;resizable=0;points=[];" vertex="1" connectable="0" parent="1WJaWtMEOL5mZnK0n6jw-36">
          <mxGeometry x="0.0625" y="-1" relative="1" as="geometry">
            <mxPoint as="offset" />
          </mxGeometry>
        </mxCell>
        <mxCell id="1WJaWtMEOL5mZnK0n6jw-38" value="array[i].Lenght &amp;lt;= 3" style="rhombus;whiteSpace=wrap;html=1;" vertex="1" parent="1">
          <mxGeometry x="243" y="600" width="130" height="80" as="geometry" />
        </mxCell>
        <mxCell id="1WJaWtMEOL5mZnK0n6jw-45" style="edgeStyle=orthogonalEdgeStyle;rounded=0;orthogonalLoop=1;jettySize=auto;html=1;exitX=0;exitY=0.5;exitDx=0;exitDy=0;" edge="1" parent="1" source="1WJaWtMEOL5mZnK0n6jw-39">
          <mxGeometry relative="1" as="geometry">
            <mxPoint x="90" y="535" as="targetPoint" />
          </mxGeometry>
        </mxCell>
        <mxCell id="1WJaWtMEOL5mZnK0n6jw-39" value="i ++" style="rounded=0;whiteSpace=wrap;html=1;" vertex="1" parent="1">
          <mxGeometry x="273" y="520" width="70" height="30" as="geometry" />
        </mxCell>
        <mxCell id="1WJaWtMEOL5mZnK0n6jw-40" style="edgeStyle=orthogonalEdgeStyle;rounded=0;orthogonalLoop=1;jettySize=auto;html=1;entryX=1;entryY=0.5;entryDx=0;entryDy=0;" edge="1" parent="1" source="1WJaWtMEOL5mZnK0n6jw-41" target="1WJaWtMEOL5mZnK0n6jw-39">
          <mxGeometry relative="1" as="geometry">
            <Array as="points">
              <mxPoint x="500" y="535" />
            </Array>
          </mxGeometry>
        </mxCell>
        <mxCell id="1WJaWtMEOL5mZnK0n6jw-41" value="new array[k] = array[i]&lt;div&gt;k ++&lt;/div&gt;" style="rounded=0;whiteSpace=wrap;html=1;" vertex="1" parent="1">
          <mxGeometry x="437" y="612.5" width="123" height="67.5" as="geometry" />
        </mxCell>
      </root>
    </mxGraphModel>
  </diagram>
</mxfile>
